<svg width="193" height="72" viewBox="0 0 193 72" fill="none" xmlns="http://www.w3.org/2000/svg">
<rect width="193" height="72" rx="12" fill="white"/>
<path d="M63.8477 36.7093C63.8573 35.8897 64.0739 35.0858 64.4775 34.3727C64.881 33.6596 65.4582 33.0604 66.1554 32.6311C65.7156 31.9899 65.1313 31.4614 64.4498 31.0885C63.7682 30.7156 63.0085 30.5088 62.2323 30.4847C60.5839 30.3031 58.9356 31.4588 58.1609 31.4588C57.3861 31.4588 56.018 30.4847 54.6169 30.4847C53.7164 30.5166 52.8395 30.7811 52.0712 31.2527C51.3029 31.7242 50.6695 32.3868 50.2323 33.176C48.3367 36.4782 49.7543 41.2993 51.5675 43.9576C52.4741 45.262 53.5455 46.7149 54.8642 46.6654C56.1828 46.6159 56.7268 45.7903 58.3752 45.7903C60.0235 45.7903 60.4686 46.6654 61.8861 46.6324C63.3037 46.5993 64.2762 45.3115 65.1828 44.0071C65.834 43.0791 66.3347 42.0538 66.6663 40.9691C65.8368 40.6065 65.1294 40.0116 64.6294 39.2559C64.1293 38.5002 63.8579 37.6159 63.8477 36.7093Z" fill="#111111"/>
<path d="M61.1607 28.8338C61.5802 28.3583 61.9012 27.8039 62.1049 27.203C62.3086 26.6021 62.3911 25.9666 62.3475 25.3335C61.13 25.4741 60.0081 26.0625 59.1991 26.9846C58.8027 27.4328 58.4994 27.9557 58.3069 28.5227C58.1145 29.0897 58.0367 29.6894 58.0783 30.2868C58.6665 30.283 59.2469 30.1512 59.7792 29.9003C60.3114 29.6494 60.7828 29.2855 61.1607 28.8338Z" fill="#111111"/>
<path d="M78.208 40.344H80.032L81.024 37.56H85.104L86.096 40.344H88.128L84.224 29.368H82.208L78.208 40.344ZM83.024 31.704H83.072L84.608 36.088H81.488L83.024 31.704ZM89.0943 42.728H90.9343V40.024C91.3343 40.248 91.9423 40.488 92.8543 40.488C95.0943 40.488 96.5823 39.272 96.5823 36.184V35.976C96.5823 32.952 95.0303 31.96 93.3183 31.96C92.2783 31.96 91.4303 32.312 90.9343 32.808H90.8703V32.104H89.0943V42.728ZM92.5983 39.096C91.8783 39.096 91.2543 38.872 90.9343 38.616V33.944C91.2543 33.72 91.8783 33.464 92.6623 33.464C93.9583 33.464 94.6623 34.056 94.6623 36.088V36.424C94.6623 38.424 93.9103 39.096 92.5983 39.096ZM97.9286 42.728H99.7686V40.024C100.169 40.248 100.777 40.488 101.689 40.488C103.929 40.488 105.417 39.272 105.417 36.184V35.976C105.417 32.952 103.865 31.96 102.153 31.96C101.113 31.96 100.265 32.312 99.7686 32.808H99.7046V32.104H97.9286V42.728ZM101.433 39.096C100.713 39.096 100.089 38.872 99.7686 38.616V33.944C100.089 33.72 100.713 33.464 101.497 33.464C102.793 33.464 103.497 34.056 103.497 36.088V36.424C103.497 38.424 102.745 39.096 101.433 39.096ZM113.382 40.536C116.038 40.536 117.302 39.24 117.302 37.16C117.302 35.208 116.262 34.488 114.534 33.992L113.51 33.672C112.422 33.368 112.102 33 112.102 32.136C112.102 31.256 112.742 30.776 113.894 30.776C115.11 30.776 116.006 31.032 116.694 31.32V29.784C116.086 29.464 115.302 29.192 113.862 29.192C111.382 29.192 110.182 30.456 110.182 32.312C110.182 34.168 111.126 35 112.678 35.432L113.718 35.72C114.918 36.088 115.318 36.44 115.318 37.352C115.318 38.344 114.694 38.952 113.222 38.952C112.022 38.952 110.982 38.664 110.102 38.28V39.832C110.854 40.232 111.942 40.536 113.382 40.536ZM121.498 40.44C122.266 40.44 122.714 40.264 123.034 40.104V38.872C122.746 38.952 122.41 39 122.09 39C121.226 39 120.97 38.744 120.97 38.056V33.544H122.938V32.104H120.97V30.168H119.162V32.104H118.01V33.544H119.162V38.312C119.162 39.864 120.074 40.44 121.498 40.44ZM127.753 40.488C130.057 40.488 131.657 38.968 131.657 36.312V36.088C131.657 33.464 130.233 31.96 127.769 31.96C125.449 31.96 123.849 33.496 123.849 36.136V36.392C123.849 38.968 125.241 40.488 127.753 40.488ZM127.785 39.096C126.633 39.096 125.737 38.52 125.737 36.392V36.008C125.737 34.232 126.473 33.352 127.737 33.352C128.857 33.352 129.737 33.928 129.737 36.072V36.472C129.737 38.248 129.017 39.096 127.785 39.096ZM132.96 40.344H134.8V34.216C135.328 33.88 136.064 33.672 136.8 33.672C136.992 33.672 137.264 33.688 137.472 33.72V32.088C137.392 32.056 137.184 32.04 136.96 32.04C136.096 32.04 135.248 32.472 134.8 33.064H134.736V32.104H132.96V40.344ZM142.207 40.488C143.599 40.488 144.559 40.088 145.119 39.72V38.44C144.399 38.808 143.631 39.048 142.575 39.048C141.007 39.048 140.127 38.44 140.015 36.728H145.391V35.96C145.391 33.336 144.335 31.976 141.903 31.976C139.807 31.976 138.127 33.336 138.127 36.104V36.328C138.127 38.936 139.471 40.488 142.207 40.488ZM141.871 33.336C142.943 33.336 143.519 33.912 143.519 35.464H140.015C140.143 33.784 141.023 33.336 141.871 33.336Z" fill="#111111"/>
</svg>
