<svg width="193" height="72" viewBox="0 0 193 72" fill="none" xmlns="http://www.w3.org/2000/svg">
<rect width="193" height="72" rx="12" fill="#111111"/>
<path d="M63.8506 36.7098C63.8602 35.8901 64.0769 35.0863 64.4804 34.3732C64.8839 33.6601 65.4612 33.0609 66.1583 32.6316C65.7186 31.9904 65.1343 31.4619 64.4527 31.089C63.7711 30.7161 63.0115 30.5093 62.2352 30.4852C60.5869 30.3036 58.9385 31.4593 58.1638 31.4593C57.3891 31.4593 56.0209 30.4852 54.6198 30.4852C53.7194 30.517 52.8424 30.7816 52.0741 31.2532C51.3059 31.7247 50.6724 32.3873 50.2352 33.1765C48.3396 36.4786 49.7572 41.2998 51.5704 43.9581C52.477 45.2625 53.5484 46.7154 54.8671 46.6659C56.1858 46.6164 56.7297 45.7908 58.3781 45.7908C60.0264 45.7908 60.4715 46.6659 61.8891 46.6329C63.3066 46.5998 64.2792 45.312 65.1858 44.0076C65.837 43.0796 66.3377 42.0542 66.6693 40.9696C65.8397 40.607 65.1323 40.0121 64.6323 39.2564C64.1323 38.5007 63.8608 37.6164 63.8506 36.7098Z" fill="white"/>
<path d="M61.1636 28.8343C61.5831 28.3587 61.9041 27.8044 62.1078 27.2035C62.3116 26.6026 62.394 25.9671 62.3504 25.334C61.133 25.4746 60.011 26.063 59.2021 26.9851C58.8056 27.4333 58.5023 27.9562 58.3098 28.5232C58.1174 29.0901 58.0397 29.6899 58.0812 30.2873C58.6694 30.2835 59.2498 30.1516 59.7821 29.9007C60.3144 29.6499 60.7858 29.286 61.1636 28.8343Z" fill="white"/>
<path d="M78.208 40.344H80.032L81.024 37.56H85.104L86.096 40.344H88.128L84.224 29.368H82.208L78.208 40.344ZM83.024 31.704H83.072L84.608 36.088H81.488L83.024 31.704ZM89.0943 42.728H90.9343V40.024C91.3343 40.248 91.9423 40.488 92.8543 40.488C95.0943 40.488 96.5823 39.272 96.5823 36.184V35.976C96.5823 32.952 95.0303 31.96 93.3183 31.96C92.2783 31.96 91.4303 32.312 90.9343 32.808H90.8703V32.104H89.0943V42.728ZM92.5983 39.096C91.8783 39.096 91.2543 38.872 90.9343 38.616V33.944C91.2543 33.72 91.8783 33.464 92.6623 33.464C93.9583 33.464 94.6623 34.056 94.6623 36.088V36.424C94.6623 38.424 93.9103 39.096 92.5983 39.096ZM97.9286 42.728H99.7686V40.024C100.169 40.248 100.777 40.488 101.689 40.488C103.929 40.488 105.417 39.272 105.417 36.184V35.976C105.417 32.952 103.865 31.96 102.153 31.96C101.113 31.96 100.265 32.312 99.7686 32.808H99.7046V32.104H97.9286V42.728ZM101.433 39.096C100.713 39.096 100.089 38.872 99.7686 38.616V33.944C100.089 33.72 100.713 33.464 101.497 33.464C102.793 33.464 103.497 34.056 103.497 36.088V36.424C103.497 38.424 102.745 39.096 101.433 39.096ZM113.382 40.536C116.038 40.536 117.302 39.24 117.302 37.16C117.302 35.208 116.262 34.488 114.534 33.992L113.51 33.672C112.422 33.368 112.102 33 112.102 32.136C112.102 31.256 112.742 30.776 113.894 30.776C115.11 30.776 116.006 31.032 116.694 31.32V29.784C116.086 29.464 115.302 29.192 113.862 29.192C111.382 29.192 110.182 30.456 110.182 32.312C110.182 34.168 111.126 35 112.678 35.432L113.718 35.72C114.918 36.088 115.318 36.44 115.318 37.352C115.318 38.344 114.694 38.952 113.222 38.952C112.022 38.952 110.982 38.664 110.102 38.28V39.832C110.854 40.232 111.942 40.536 113.382 40.536ZM121.498 40.44C122.266 40.44 122.714 40.264 123.034 40.104V38.872C122.746 38.952 122.41 39 122.09 39C121.226 39 120.97 38.744 120.97 38.056V33.544H122.938V32.104H120.97V30.168H119.162V32.104H118.01V33.544H119.162V38.312C119.162 39.864 120.074 40.44 121.498 40.44ZM127.753 40.488C130.057 40.488 131.657 38.968 131.657 36.312V36.088C131.657 33.464 130.233 31.96 127.769 31.96C125.449 31.96 123.849 33.496 123.849 36.136V36.392C123.849 38.968 125.241 40.488 127.753 40.488ZM127.785 39.096C126.633 39.096 125.737 38.52 125.737 36.392V36.008C125.737 34.232 126.473 33.352 127.737 33.352C128.857 33.352 129.737 33.928 129.737 36.072V36.472C129.737 38.248 129.017 39.096 127.785 39.096ZM132.96 40.344H134.8V34.216C135.328 33.88 136.064 33.672 136.8 33.672C136.992 33.672 137.264 33.688 137.472 33.72V32.088C137.392 32.056 137.184 32.04 136.96 32.04C136.096 32.04 135.248 32.472 134.8 33.064H134.736V32.104H132.96V40.344ZM142.207 40.488C143.599 40.488 144.559 40.088 145.119 39.72V38.44C144.399 38.808 143.631 39.048 142.575 39.048C141.007 39.048 140.127 38.44 140.015 36.728H145.391V35.96C145.391 33.336 144.335 31.976 141.903 31.976C139.807 31.976 138.127 33.336 138.127 36.104V36.328C138.127 38.936 139.471 40.488 142.207 40.488ZM141.871 33.336C142.943 33.336 143.519 33.912 143.519 35.464H140.015C140.143 33.784 141.023 33.336 141.871 33.336Z" fill="white"/>
</svg>
