<svg width="193" height="72" viewBox="0 0 193 72" fill="none" xmlns="http://www.w3.org/2000/svg">
<rect width="193" height="72" rx="12" fill="#111111"/>
<path d="M43.0348 25.6786C42.7709 26.0023 42.6394 26.4179 42.6679 26.8385V45.1675C42.6464 45.5923 42.8085 46.0497 43.0665 46.383L53.1402 36.1079V35.8628L43.0987 25.6133" fill="white"/>
<path opacity="0.3" d="M56.4748 39.4982L53.1562 36.1093V35.866L56.4748 32.4609L60.4955 34.7959C60.7395 34.8791 60.9517 35.0381 61.102 35.2505C61.2523 35.4629 61.3332 35.7179 61.3332 35.9795C61.3332 36.2412 61.2523 36.4962 61.102 36.7086C60.9517 36.921 60.7395 37.08 60.4955 37.1632L56.5546 39.4495" fill="white"/>
<path opacity="0.5" d="M56.4717 32.4405L44.697 25.6141C44.4319 25.4587 44.1886 25.334 43.8993 25.334C43.61 25.334 43.3291 25.4326 43.1016 25.6141L53.1531 35.8618L56.4932 32.4405" fill="white"/>
<path opacity="0.5" d="M56.4456 39.5048L44.6658 46.3879C44.4006 46.5433 44.1573 46.668 43.8681 46.668C43.5788 46.668 43.2979 46.5693 43.0703 46.3879L53.147 36.1179L56.4671 39.5048" fill="white"/>
<path d="M78 40.52C79.472 40.52 80.752 40.184 81.584 39.848V34.76H77.632V36.232H79.664V38.728C79.264 38.856 78.624 38.968 77.984 38.968C75.408 38.968 74.816 37.352 74.816 35.08V34.584C74.816 32.52 75.584 30.792 78.16 30.792C79.616 30.792 80.464 31.112 81.12 31.4V29.832C80.48 29.496 79.52 29.192 78.112 29.192C75.264 29.192 72.736 30.568 72.736 34.744V35.08C72.736 38.936 74.784 40.52 78 40.52ZM86.6749 40.488C88.9789 40.488 90.5789 38.968 90.5789 36.312V36.088C90.5789 33.464 89.1549 31.96 86.6909 31.96C84.3709 31.96 82.7709 33.496 82.7709 36.136V36.392C82.7709 38.968 84.1629 40.488 86.6749 40.488ZM86.7069 39.096C85.5549 39.096 84.6589 38.52 84.6589 36.392V36.008C84.6589 34.232 85.3949 33.352 86.6589 33.352C87.7789 33.352 88.6589 33.928 88.6589 36.072V36.472C88.6589 38.248 87.9389 39.096 86.7069 39.096ZM95.3218 40.488C97.6258 40.488 99.2258 38.968 99.2258 36.312V36.088C99.2258 33.464 97.8018 31.96 95.3378 31.96C93.0178 31.96 91.4178 33.496 91.4178 36.136V36.392C91.4178 38.968 92.8098 40.488 95.3218 40.488ZM95.3538 39.096C94.2018 39.096 93.3058 38.52 93.3058 36.392V36.008C93.3058 34.232 94.0418 33.352 95.3058 33.352C96.4258 33.352 97.3058 33.928 97.3058 36.072V36.472C97.3058 38.248 96.5858 39.096 95.3538 39.096ZM103.553 42.68C106.449 42.68 107.697 41.544 107.697 40.008C107.697 38.488 106.593 37.928 105.025 37.928H102.753C102.241 37.928 102.017 37.784 102.017 37.384C102.017 37.176 102.129 37.128 102.321 36.968C102.705 37.096 103.153 37.128 103.617 37.128C105.473 37.128 106.849 36.36 106.849 34.6V34.488C106.849 33.976 106.705 33.624 106.433 33.32H107.697V32.104H104.913C104.513 32.024 104.081 31.976 103.633 31.976C101.681 31.976 100.337 32.84 100.337 34.536V34.68C100.337 35.608 100.753 36.216 101.377 36.616C100.785 37 100.417 37.336 100.417 37.896C100.417 38.472 100.785 38.92 101.281 39.096V39.16C100.417 39.416 99.7446 39.928 99.7446 40.776C99.7446 41.944 100.977 42.68 103.553 42.68ZM103.521 41.432C102.097 41.432 101.569 41.112 101.569 40.504C101.569 39.944 101.921 39.64 102.417 39.48H104.529C105.521 39.48 105.809 39.672 105.809 40.312C105.809 41 105.233 41.432 103.521 41.432ZM103.617 35.944C102.705 35.944 102.145 35.592 102.145 34.632V34.44C102.145 33.576 102.673 33.144 103.617 33.144C104.513 33.144 105.073 33.496 105.073 34.472V34.68C105.073 35.592 104.561 35.944 103.617 35.944ZM108.754 40.344H110.61V28.648H108.754V40.344ZM116.048 40.488C117.44 40.488 118.4 40.088 118.96 39.72V38.44C118.24 38.808 117.472 39.048 116.416 39.048C114.848 39.048 113.968 38.44 113.856 36.728H119.232V35.96C119.232 33.336 118.176 31.976 115.744 31.976C113.648 31.976 111.968 33.336 111.968 36.104V36.328C111.968 38.936 113.312 40.488 116.048 40.488ZM115.712 33.336C116.784 33.336 117.36 33.912 117.36 35.464H113.856C113.984 33.784 114.864 33.336 115.712 33.336ZM124.543 40.344H126.511V36.232H128.511C130.799 36.232 132.255 35.032 132.255 32.744C132.255 30.568 130.959 29.368 128.383 29.368H124.543V40.344ZM126.511 34.76V30.888H128.175C129.631 30.888 130.191 31.416 130.191 32.856C130.191 34.136 129.631 34.76 128.143 34.76H126.511ZM133.498 40.344H135.354V28.648H133.498V40.344ZM139.24 40.488C140.312 40.488 140.968 40.136 141.368 39.672H141.464L141.608 40.344H143.128V34.424C143.128 32.712 142.024 31.976 140.12 31.976C139.048 31.976 138.168 32.12 137.4 32.424V33.688C137.896 33.576 138.6 33.464 139.4 33.464C140.792 33.464 141.288 33.72 141.288 34.84V35.464L139.352 35.688C137.72 35.928 136.712 36.632 136.712 38.152C136.712 39.736 137.752 40.488 139.24 40.488ZM139.8 39.192C139.048 39.192 138.52 38.84 138.52 38.056C138.52 37.224 138.952 36.888 139.768 36.824L141.288 36.664V38.696C140.984 38.984 140.392 39.192 139.8 39.192ZM145.813 42.712C147.333 42.712 148.133 42.136 148.677 40.568L151.861 32.104H150.085L148.165 37.448H148.101L146.021 32.104H144.069L147.173 39.736L146.949 40.312C146.661 41.096 146.165 41.288 145.413 41.288C145.125 41.288 144.821 41.256 144.613 41.208V42.44C144.853 42.6 145.397 42.712 145.813 42.712Z" fill="#F6F7F8"/>
</svg>
