<svg width="36" height="36" viewBox="0 0 36 36" fill="none" xmlns="http://www.w3.org/2000/svg">
<path fill-rule="evenodd" clip-rule="evenodd" d="M10.2929 12.2929C10.6834 11.9024 11.3166 11.9024 11.7071 12.2929L16.7071 17.2929C17.0976 17.6834 17.0976 18.3166 16.7071 18.7071L11.7071 23.7071C11.3166 24.0976 10.6834 24.0976 10.2929 23.7071C9.90237 23.3166 9.90237 22.6834 10.2929 22.2929L14.5858 18L10.2929 13.7071C9.90237 13.3166 9.90237 12.6834 10.2929 12.2929Z" fill="#9EA7AD"/>
<path fill-rule="evenodd" clip-rule="evenodd" d="M19.2929 12.2929C19.6834 11.9024 20.3166 11.9024 20.7071 12.2929L25.7071 17.2929C26.0976 17.6834 26.0976 18.3166 25.7071 18.7071L20.7071 23.7071C20.3166 24.0976 19.6834 24.0976 19.2929 23.7071C18.9024 23.3166 18.9024 22.6834 19.2929 22.2929L23.5858 18L19.2929 13.7071C18.9024 13.3166 18.9024 12.6834 19.2929 12.2929Z" fill="#9EA7AD"/>
</svg>
