<svg width="20" height="19" viewBox="0 0 20 19" fill="none" xmlns="http://www.w3.org/2000/svg">
<path fill-rule="evenodd" clip-rule="evenodd" d="M16.6013 0.496582H3.39223C1.52265 0.496582 0 2.02565 0 3.88881V12.0995C0 13.9691 1.52907 15.4918 3.39223 15.4918H8.05654L8.85962 16.8795L9.64986 18.2479C9.7912 18.4985 10.151 18.4985 10.2987 18.2479L11.089 16.8795L11.8921 15.4918H16.6078C18.4774 15.4918 20 13.9627 20 12.0995V3.89523C20 2.02565 18.4709 0.496582 16.6013 0.496582ZM10.9128 6.51123C9.89128 6.51123 9.0625 7.32716 9.0625 8.33584C9.0625 9.34451 9.89128 10.1604 10.9128 10.1604C11.9343 10.1604 12.7631 9.34451 12.7631 8.33584C12.7631 7.32716 11.9408 6.51123 10.9128 6.51123ZM10.9128 9.20959C10.4245 9.20959 10.0262 8.81769 10.0262 8.33584C10.0262 7.85399 10.4245 7.46208 10.9128 7.46208C11.4011 7.46208 11.7994 7.85399 11.7994 8.33584C11.7994 8.81769 11.4075 9.20959 10.9128 9.20959ZM4.00451 6.92826C4.29362 6.66485 4.66625 6.51065 5.06458 6.51065C5.98973 6.51065 6.72857 7.33301 6.72857 8.34169C6.72857 9.35036 5.98331 10.1663 5.06458 10.1663C4.65983 10.1663 4.29362 10.0057 4.00451 9.74869V10.0764H2.97656V5.41846H4.00451V6.92826ZM4.01093 8.69505C4.15228 9.02271 4.47994 9.24757 4.85899 9.24757C5.37296 9.24757 5.78414 8.84281 5.78414 8.33526C5.78414 7.82771 5.37296 7.42296 4.85899 7.42296C4.47994 7.42296 4.15228 7.64782 4.01093 7.97548C3.95954 8.0847 3.93384 8.20677 3.93384 8.33526C3.93384 8.46376 3.96596 8.58583 4.01093 8.69505ZM15.9699 6.58776V6.87687C15.6808 6.65201 15.321 6.51709 14.9355 6.51709C13.9911 6.51709 13.2266 7.30732 13.2266 8.27745C13.2266 9.24757 13.9911 10.0378 14.9355 10.0378C15.3274 10.0378 15.6872 9.90289 15.9699 9.67803V10.1663C15.9699 10.1663 15.8671 10.6482 15.1475 10.6482V11.554C15.1475 11.554 15.9249 11.644 16.6188 10.9501C16.6188 10.9501 16.94 10.6096 17.0107 10.1599V6.58776H15.9699ZM15.1283 9.17048C14.6079 9.17048 14.1903 8.76572 14.1903 8.27102C14.1903 7.77633 14.6143 7.37157 15.1283 7.37157C15.4945 7.37157 15.8157 7.57716 15.9699 7.87269C16.0341 7.99476 16.0663 8.12968 16.0663 8.27102C16.0663 8.41237 16.0277 8.55371 15.9699 8.66935C15.8157 8.97131 15.4945 9.17048 15.1283 9.17048ZM6.84375 6.25993V5.32836C6.84375 5.32836 7.52477 5.23841 8.12868 5.95155C8.12868 5.95155 8.40495 6.29848 8.46919 6.76105V6.78675V10.0762H7.40912V6.78675C7.31918 6.32418 6.84375 6.25993 6.84375 6.25993Z" fill="white"/>
</svg>
