<svg width="20" height="21" viewBox="0 0 20 21" fill="none" xmlns="http://www.w3.org/2000/svg">
<path fill-rule="evenodd" clip-rule="evenodd" d="M10 2.29888C12.6717 2.29888 12.9853 2.31079 14.0413 2.35843C15.0179 2.4021 15.5459 2.56486 15.8992 2.70381C16.3676 2.88642 16.7011 3.10079 17.0504 3.45013C17.3998 3.79948 17.6181 4.13295 17.7968 4.60139C17.9317 4.9547 18.0985 5.48269 18.1421 6.45927C18.1898 7.51524 18.2017 7.82886 18.2017 10.5006C18.2017 13.1722 18.1898 13.4859 18.1421 14.5418C18.0985 15.5184 17.9357 16.0464 17.7968 16.3997C17.6142 16.8682 17.3998 17.2016 17.0504 17.551C16.7011 17.9003 16.3676 18.1187 15.8992 18.2973C15.5459 18.4323 15.0179 18.599 14.0413 18.6427C12.9853 18.6903 12.6717 18.7022 10 18.7022C7.32831 18.7022 7.0147 18.6903 5.95872 18.6427C4.98214 18.599 4.45415 18.4362 4.10084 18.2973C3.6324 18.1147 3.29893 17.9003 2.94959 17.551C2.60024 17.2016 2.3819 16.8682 2.20326 16.3997C2.06828 16.0464 1.90155 15.5184 1.85788 14.5418C1.81024 13.4859 1.79833 13.1722 1.79833 10.5006C1.79833 7.82886 1.81024 7.51524 1.85788 6.45927C1.90155 5.48269 2.06431 4.9547 2.20326 4.60139C2.38587 4.13295 2.60024 3.79948 2.94959 3.45013C3.29893 3.10079 3.6324 2.88245 4.10084 2.70381C4.45415 2.56883 4.98214 2.4021 5.95872 2.35843C7.0147 2.30682 7.33228 2.29888 10 2.29888ZM10 0.496582C7.28464 0.496582 6.94324 0.508492 5.87535 0.556129C4.81144 0.603767 4.08496 0.77447 3.44979 1.0206C2.79079 1.27467 2.23502 1.62004 1.67924 2.17582C1.12346 2.7316 0.782057 3.29134 0.524018 3.94636C0.277888 4.58154 0.107186 5.30802 0.0595475 6.3759C0.0119095 7.43981 0 7.78122 0 10.4966C0 13.2119 0.0119095 13.5533 0.0595475 14.6212C0.107186 15.6851 0.277888 16.4116 0.524018 17.0508C0.778087 17.7098 1.12346 18.2655 1.67924 18.8213C2.23502 19.3771 2.79476 19.7185 3.44979 19.9765C4.08496 20.2227 4.81144 20.3934 5.87932 20.441C6.94721 20.4886 7.28464 20.5006 10.004 20.5006C12.7233 20.5006 13.0608 20.4886 14.1286 20.441C15.1926 20.3934 15.919 20.2227 16.5582 19.9765C17.2172 19.7225 17.7729 19.3771 18.3287 18.8213C18.8845 18.2655 19.2259 17.7058 19.4839 17.0508C19.7301 16.4156 19.9008 15.6891 19.9484 14.6212C19.9961 13.5533 20.008 13.2159 20.008 10.4966C20.008 7.77725 19.9961 7.43981 19.9484 6.37193C19.9008 5.30801 19.7301 4.58154 19.4839 3.94239C19.2299 3.2834 18.8845 2.72763 18.3287 2.17185C17.7729 1.61607 17.2132 1.27467 16.5582 1.01663C15.923 0.7705 15.1965 0.599798 14.1286 0.55216C13.0568 0.508492 12.7154 0.496582 10 0.496582ZM9.99634 5.36377C7.16188 5.36377 4.85938 7.6623 4.85938 10.5007C4.85938 13.3392 7.15791 15.6377 9.99634 15.6377C12.8348 15.6377 15.1333 13.3392 15.1333 10.5007C15.1333 7.6623 12.8348 5.36377 9.99634 5.36377ZM9.99634 13.8314C8.15433 13.8314 6.66168 12.3388 6.66168 10.4968C6.66168 8.65476 8.15433 7.1621 9.99634 7.1621C11.8383 7.1621 13.331 8.65476 13.331 10.4968C13.331 12.3388 11.8383 13.8314 9.99634 13.8314ZM16.5384 5.15738C16.5384 5.81951 16.0016 6.35627 15.3395 6.35627C14.6774 6.35627 14.1406 5.81951 14.1406 5.15738C14.1406 4.49526 14.6774 3.9585 15.3395 3.9585C16.0016 3.9585 16.5384 4.49526 16.5384 5.15738Z" fill="white"/>
</svg>
