<svg width="16" height="16" viewBox="0 0 16 16" fill="none" xmlns="http://www.w3.org/2000/svg">
<path fill-rule="evenodd" clip-rule="evenodd" d="M8 2C8.27614 2 8.5 2.22386 8.5 2.5V10.2904L10.9772 7.81319C11.1724 7.61793 11.489 7.61793 11.6843 7.81319C11.8795 8.00846 11.8795 8.32504 11.6843 8.5203L8.35095 11.8536C8.15569 12.0489 7.8391 12.0489 7.64384 11.8536L4.31051 8.5203C4.11525 8.32504 4.11525 8.00846 4.31051 7.81319C4.50577 7.61793 4.82235 7.61793 5.01762 7.81319L7.5 10.2956V2.5C7.5 2.22386 7.72386 2 8 2ZM2 13.5C2 13.2239 2.22386 13 2.5 13H13.5C13.7761 13 14 13.2239 14 13.5C14 13.7761 13.7761 14 13.5 14H2.5C2.22386 14 2 13.7761 2 13.5Z" fill="white"/>
</svg>
