<svg width="20" height="15" viewBox="0 0 20 15" fill="none" xmlns="http://www.w3.org/2000/svg">
<path d="M19.5797 2.69948C19.3478 1.82992 18.6667 1.14876 17.8116 0.916872C16.2464 0.496582 10 0.496582 10 0.496582C10 0.496582 3.73913 0.496582 2.18841 0.916872C1.33333 1.14876 0.652174 1.82992 0.42029 2.69948C2.0732e-07 4.2647 0 7.54006 0 7.54006C0 7.54006 2.0732e-07 10.8154 0.42029 12.3806C0.652174 13.2502 1.33333 13.9314 2.18841 14.1633C3.75362 14.5835 10 14.5835 10 14.5835C10 14.5835 16.2609 14.5835 17.8116 14.1633C18.6667 13.9314 19.3478 13.2502 19.5797 12.3806C20 10.8154 20 7.54006 20 7.54006C20 7.54006 20 4.2647 19.5797 2.69948ZM7.95652 10.5111V4.56905L13.1884 7.54006L7.95652 10.5111Z" fill="white"/>
</svg>
