<svg width="72" height="72" viewBox="0 0 72 72" fill="none" xmlns="http://www.w3.org/2000/svg">
<g filter="url(#filter0_d_463_657)">
<rect x="8" y="8" width="48" height="48" rx="8" fill="#1A1B1E" shape-rendering="crispEdges"/>
<path d="M41.35 29.1487L32.35 20.1487C32.35 20.1487 32.25 20.0687 32.19 20.0387C32.07 19.9887 31.93 19.9887 31.81 20.0387C31.75 20.0687 31.69 20.0987 31.65 20.1487L22.65 29.1487C22.45 29.3487 22.45 29.6587 22.65 29.8587C22.85 30.0587 23.16 30.0587 23.36 29.8587L31.5 21.7087V43.4987C31.5 43.7787 31.72 43.9987 32 43.9987C32.28 43.9987 32.5 43.7787 32.5 43.4987V21.7087L40.65 29.8587C40.75 29.9587 40.88 30.0087 41 30.0087C41.12 30.0087 41.26 29.9587 41.35 29.8587C41.55 29.6587 41.55 29.3487 41.35 29.1487Z" fill="white"/>
</g>
<defs>
<filter id="filter0_d_463_657" x="0" y="0" width="72" height="72" filterUnits="userSpaceOnUse" color-interpolation-filters="sRGB">
<feFlood flood-opacity="0" result="BackgroundImageFix"/>
<feColorMatrix in="SourceAlpha" type="matrix" values="0 0 0 0 0 0 0 0 0 0 0 0 0 0 0 0 0 0 127 0" result="hardAlpha"/>
<feOffset dx="4" dy="4"/>
<feGaussianBlur stdDeviation="6"/>
<feComposite in2="hardAlpha" operator="out"/>
<feColorMatrix type="matrix" values="0 0 0 0 0 0 0 0 0 0 0 0 0 0 0 0 0 0 0.1 0"/>
<feBlend mode="normal" in2="BackgroundImageFix" result="effect1_dropShadow_463_657"/>
<feBlend mode="normal" in="SourceGraphic" in2="effect1_dropShadow_463_657" result="shape"/>
</filter>
</defs>
</svg>
